<?xml version="1.0" encoding="UTF-8" standalone="no"?>
<svg width="237px" height="342px" viewBox="0 0 237 342" version="1.1" xmlns="http://www.w3.org/2000/svg" xmlns:xlink="http://www.w3.org/1999/xlink" xmlns:sketch="http://www.bohemiancoding.com/sketch/ns">
    <!-- Generator: Sketch 3.1.1 (8761) - http://www.bohemiancoding.com/sketch -->
    <title>Oval 3 + origami 6 + REGISTRO  5</title>
    <desc>Created with Sketch.</desc>
    <defs></defs>
    <g id="logo" stroke="none" stroke-width="1" fill="none" fill-rule="evenodd" sketch:type="MSPage">
        <g id="Landscape" sketch:type="MSArtboardGroup" transform="translate(-383.000000, -59.000000)">
            <g id="Oval-3-+-origami-6-+-REGISTRO--5" sketch:type="MSLayerGroup" transform="translate(384.000000, 59.000000)">
                <g id="Oval-3-+-origami-6" transform="translate(11.000000, 0.000000)" sketch:type="MSShapeGroup">
                    <circle id="Oval-3" fill="#2C3E52" cx="107" cy="106.800781" r="106.800781"></circle>
                    <g id="origami-6" transform="translate(40.468366, 43.770812)" stroke="#000000" stroke-opacity="0" stroke-width="0.8174994" fill="#F7F7F7">
                        <path d="M0.0280784589,33.1624576 L25.4849817,33.3197791 L25.4849817,0.12629991 L0.0280784589,33.1624576 Z" id="path2996-0"></path>
                        <path d="M26.0297147,79.8850234 L58.7600204,41.6574696 L26.0297147,0.00480889789 L26.0297147,79.8850234 Z" id="path2998-0"></path>
                        <path d="M26.3285755,80.746036 L80.6853847,17.4751337 L138.779198,17.4751337 L50.9330456,108.466423 L26.3285755,80.746036 Z" id="path3000-3"></path>
                        <path d="M83.4022026,136.598432 L80.1170929,79.3870898 L51.4612162,108.683513 L83.4022026,136.598432 Z" id="path3002-1"></path>
                    </g>
                </g>
                <path d="M24.336,261.344 C24.336,254.432 19.68,250.448 11.52,250.448 L0.144,250.448 L0.144,284 L1.104,284 L1.104,272.48 L11.52,272.48 C12.624,272.48 13.632,272.384 14.592,272.288 L23.136,284 L24.336,284 L15.648,272.096 C21.216,270.896 24.336,267.104 24.336,261.344 L24.336,261.344 Z M1.104,271.52 L1.104,251.408 L11.52,251.408 C19.056,251.408 23.376,255.008 23.376,261.344 C23.376,267.824 19.056,271.52 11.52,271.52 L1.104,271.52 Z M55.776,251.408 L55.776,250.448 L34.8,250.448 L34.8,284 L56.448,284 L56.448,283.04 L35.76,283.04 L35.76,267.2 L53.568,267.2 L53.568,266.24 L35.76,266.24 L35.76,251.408 L55.776,251.408 Z M90.768,267.536 L89.808,267.536 L89.808,279.248 C86.976,281.648 83.232,283.088 79.2,283.088 C70.224,283.088 62.88,275.936 62.88,267.2 C62.88,258.464 70.224,251.36 79.2,251.36 C83.376,251.36 87.216,252.848 90.096,255.392 L90.72,254.768 C87.648,252.08 83.616,250.448 79.2,250.448 C69.744,250.448 61.968,257.984 61.968,267.2 C61.968,276.416 69.744,284 79.2,284 C83.616,284 87.696,282.32 90.768,279.632 L90.768,267.536 Z M103.152,284 L103.152,250.448 L102.192,250.448 L102.192,284 L103.152,284 Z M123.792,250.448 C117.312,250.448 113.088,253.376 113.088,257.888 C113.088,270.08 133.248,264.32 133.152,275.84 C133.152,280.208 129.072,283.04 122.736,283.04 C118.704,283.04 114.48,281.312 111.936,278.624 L111.264,279.296 C114.048,282.128 118.512,284 122.736,284 C129.648,284 134.112,280.784 134.112,275.84 C134.208,263.36 114.048,269.12 114.048,257.888 C114.048,253.952 117.888,251.408 123.792,251.408 C126.768,251.408 130.08,252.272 132.24,253.664 L132.72,252.896 C130.416,251.408 126.912,250.448 123.792,250.448 L123.792,250.448 Z M162.384,251.408 L162.384,250.448 L138.384,250.448 L138.384,251.408 L149.904,251.408 L149.904,284 L150.864,284 L150.864,251.408 L162.384,251.408 Z M193.344,261.344 C193.344,254.432 188.688,250.448 180.528,250.448 L169.152,250.448 L169.152,284 L170.112,284 L170.112,272.48 L180.528,272.48 C181.632,272.48 182.64,272.384 183.6,272.288 L192.144,284 L193.344,284 L184.656,272.096 C190.224,270.896 193.344,267.104 193.344,261.344 L193.344,261.344 Z M170.112,271.52 L170.112,251.408 L180.528,251.408 C188.064,251.408 192.384,255.008 192.384,261.344 C192.384,267.824 188.064,271.52 180.528,271.52 L170.112,271.52 Z M217.296,250.448 C207.84,250.448 200.064,257.984 200.064,267.2 C200.064,276.416 207.84,284 217.296,284 C226.752,284 234.528,276.416 234.528,267.2 C234.528,257.984 226.752,250.448 217.296,250.448 L217.296,250.448 Z M217.296,251.408 C226.224,251.408 233.568,258.512 233.568,267.2 C233.568,275.888 226.224,283.04 217.296,283.04 C208.368,283.04 201.024,275.888 201.024,267.2 C201.024,258.512 208.368,251.408 217.296,251.408 L217.296,251.408 Z M1.104,340.04 L1.104,307.448 L0.144,307.448 L0.144,341 L16.128,341 L16.128,340.04 L1.104,340.04 Z M51.672,341 L51.672,307.448 L50.712,307.448 L50.712,341 L51.672,341 Z M100.368,341 L114.384,307.448 L113.232,307.448 L99.84,339.896 L86.4,307.448 L85.296,307.448 L99.312,341 L100.368,341 Z M172.2,318.344 C172.2,311.432 167.544,307.448 159.384,307.448 L148.008,307.448 L148.008,341 L148.968,341 L148.968,329.48 L159.384,329.48 C160.488,329.48 161.496,329.384 162.456,329.288 L171,341 L172.2,341 L163.512,329.096 C169.08,327.896 172.2,324.104 172.2,318.344 L172.2,318.344 Z M148.968,328.52 L148.968,308.408 L159.384,308.408 C166.92,308.408 171.24,312.008 171.24,318.344 C171.24,324.824 166.92,328.52 159.384,328.52 L148.968,328.52 Z M230.64,308.408 L230.64,307.448 L209.664,307.448 L209.664,341 L231.312,341 L231.312,340.04 L210.624,340.04 L210.624,324.2 L228.432,324.2 L228.432,323.24 L210.624,323.24 L210.624,308.408 L230.64,308.408 Z" id="REGISTRO--5" stroke="#2C3E52" sketch:type="MSShapeGroup"></path>
            </g>
        </g>
    </g>
</svg>